<?xml version="1.0" encoding="utf-8"?>
<!-- Generator: Adobe Illustrator 22.0.1, SVG Export Plug-In . SVG Version: 6.00 Build 0)  -->
<svg version="1.1" id="Vrstva_1" xmlns="http://www.w3.org/2000/svg" xmlns:xlink="http://www.w3.org/1999/xlink" x="0px" y="0px"
	 viewBox="0 0 256 256" style="enable-background:new 0 0 256 256;" xml:space="preserve">
<style type="text/css">
	.st0{fill:#FFFFFF;}
	.st1{fill:#8FA09E;}
	.st2{fill:#222222;}
</style>
<g>
	<g>
		<path class="st0" d="M191.5,9.2c-2.9-2.3-6.5-3.7-10.5-3.7H48c-9.1,0-16.6,7.5-16.6,16.6v189.4c0,7.3,4.8,13.6,11.4,15.8
			c1.6,0.6,3.4,0.8,5.2,0.8h133c6.3,0,11.8-3.5,14.6-8.7c1.3-2.4,2-5.1,2-8V22.1C197.6,16.9,195.2,12.2,191.5,9.2z M194.8,131.5v80
			c0,1.8-0.3,3.5-1,5c-2,5.2-7,8.8-12.9,8.8H48c-1.9,0-3.7-0.4-5.3-1.1c-5-2.1-8.6-7-8.6-12.8V22.1c0-7.6,6.2-13.9,13.9-13.9h133
			c1.8,0,3.5,0.3,5.1,1c5.1,2,8.8,7,8.8,12.9v80c1.5,4.6,2.3,9.6,2.3,14.7C197.1,121.9,196.3,126.8,194.8,131.5z"/>
		<path d="M195.5,9.2c-3.5-4-8.7-6.5-14.5-6.5H48c-10.7,0-19.4,8.7-19.4,19.4v189.4c0,9.1,6.3,16.7,14.7,18.8
			c1.5,0.4,3.1,0.6,4.7,0.6h133c6.7,0,12.7-3.5,16.2-8.7c2-3.1,3.2-6.7,3.2-10.7V22.1C200.4,17.1,198.5,12.6,195.5,9.2z
			 M194.8,211.4c0,1.8-0.3,3.5-1,5c-2,5.2-7,8.8-12.9,8.8H48c-1.9,0-3.7-0.4-5.3-1.1c-5-2.1-8.6-7-8.6-12.8V22.1
			c0-7.6,6.2-13.9,13.9-13.9h133c1.8,0,3.5,0.3,5.1,1c5.1,2,8.8,7,8.8,12.9v80c1.5,4.6,2.3,9.6,2.3,14.7c0,5.1-0.8,10.1-2.3,14.7
			V211.4z"/>
		<path class="st1" d="M186.1,9.2H59.3c-9.1,0-16.6,7.5-16.6,16.6v198.4c-5-2.1-8.6-7-8.6-12.8V22.1c0-7.6,6.2-13.9,13.9-13.9h133
			C182.8,8.2,184.5,8.6,186.1,9.2z"/>
	</g>
	<g>
		<g id="Lupa">
			<path d="M200.4,101.2c-0.7-2.5-1.7-4.9-2.8-7.2c-0.8-1.8-1.8-3.5-2.8-5.2C185.4,73.4,168.4,63,149,63
				c-29.6,0-53.7,24.1-53.7,53.7s24.1,53.7,53.7,53.7c5.9,0,11.5-0.9,16.8-2.7l-0.9-1.5l18-10.4l1,1.6c4.3-3.7,8-8,11-12.9
				c1-1.7,1.9-3.4,2.8-5.1c1.1-2.3,2-4.8,2.8-7.2c1.5-4.9,2.3-10.1,2.3-15.5C202.7,111.4,201.9,106.1,200.4,101.2z M194.8,131.5
				c-6.2,19.4-24.4,33.5-45.9,33.5c-26.6,0-48.2-21.6-48.2-48.2c0-26.6,21.6-48.2,48.2-48.2c21.4,0,39.7,14.1,45.9,33.5
				c1.5,4.6,2.3,9.6,2.3,14.7C197.1,121.9,196.3,126.8,194.8,131.5z"/>
			<path d="M232.4,241.6l-18,10.4l-48.6-84.2c6.7-2.2,12.8-5.7,18.1-10.2L232.4,241.6z"/>
			<path d="M183.9,157.6c-5.3,4.5-11.4,8-18.1,10.2l-0.9-1.5l18-10.4L183.9,157.6z"/>
		</g>
		<g id="Cisla">
			<path class="st2" d="M128.1,107.8h-7.1V86.1h-4.5v-5.9h11.6V107.8z"/>
			<path class="st2" d="M137,90.1c0-8,6.5-10.5,10.4-10.5c3.6,0,10.2,2.3,10.2,10.5v7.7c0,7.7-5.9,10.5-10.2,10.5
				c-4.1,0-10.4-2.7-10.4-10.5V90.1z M144.1,98c0,1.6,0.5,4.1,3.3,4.1c3.3,0,3.3-3.3,3.3-4.1v-8.1c0-0.9,0-4.1-3.3-4.1
				c-2.8,0-3.3,2.6-3.3,4.1V98z"/>
			<path class="st2" d="M174.4,107.8h-7.1V86.1h-4.5v-5.9h11.6V107.8z"/>
			<path class="st2" d="M128.1,152.7h-7.1V131h-4.5V125h11.6V152.7z"/>
			<path class="st2" d="M151.2,152.7h-7.1V131h-4.5V125h11.6V152.7z"/>
			<path class="st2" d="M160.1,135c0-8,6.5-10.5,10.4-10.5c3.6,0,10.2,2.3,10.2,10.5v7.7c0,7.7-5.9,10.5-10.2,10.5
				c-4.1,0-10.4-2.7-10.4-10.5V135z M167.2,142.9c0,1.6,0.5,4.1,3.3,4.1c3.3,0,3.3-3.3,3.3-4.1v-8.1c0-0.9,0-4.1-3.3-4.1
				c-2.8,0-3.3,2.6-3.3,4.1V142.9z"/>
		</g>
	</g>
</g>
</svg>
